<?xml version="1.0" standalone="no"?>
<!DOCTYPE svg PUBLIC "-//W3C//DTD SVG 20010904//EN"
 "http://www.w3.org/TR/2001/REC-SVG-20010904/DTD/svg10.dtd">
<svg version="1.0" xmlns="http://www.w3.org/2000/svg"
 width="1024.000000pt" height="1024.000000pt" viewBox="0 0 1024.000000 1024.000000"
 preserveAspectRatio="xMidYMid meet">
<metadata>
Created by potrace 1.14, written by Peter Selinger 2001-2017
</metadata>
<g transform="translate(0.000000,1024.000000) scale(0.100000,-0.100000)"
fill="#000000" stroke="none">
<path d="M7749 9227 c-64 -32 -108 -70 -150 -132 -67 -98 -73 -242 -14 -328
l23 -35 -162 -130 -162 -131 -74 20 c-40 10 -122 24 -182 31 -256 28 -617 -43
-940 -188 -57 -25 -108 -48 -114 -50 -7 -3 -20 23 -34 68 -59 195 -161 292
-271 259 -49 -15 -111 -69 -145 -126 -54 -93 -97 -270 -109 -451 l-7 -101 -69
-52 c-106 -81 -231 -193 -390 -348 l-147 -143 -73 0 c-91 0 -304 -24 -459 -51
-389 -68 -794 -220 -1124 -423 l-104 -63 -6 43 c-9 72 20 260 46 292 6 6 24
12 40 12 67 0 151 59 189 132 42 82 33 180 -21 242 l-29 33 72 49 c40 26 118
94 175 151 l102 103 44 -6 c102 -14 224 54 272 152 43 88 43 225 0 324 -10 23
92 100 119 89 61 -24 156 6 196 62 35 50 39 142 7 188 -96 141 -300 97 -316
-69 -5 -51 -18 -66 -99 -113 -6 -4 -25 4 -41 18 -80 67 -232 103 -318 75 -98
-32 -173 -115 -194 -215 -11 -51 -11 -52 -64 -68 -63 -20 -203 -106 -299 -184
-84 -68 -176 -181 -218 -271 -45 -92 -51 -196 -17 -261 33 -64 81 -98 166
-118 58 -14 71 -20 66 -33 -4 -8 -8 -44 -10 -80 -2 -57 -7 -70 -41 -113 -124
-158 -343 -267 -540 -267 -40 0 -73 2 -73 5 0 3 23 33 50 67 116 144 226 364
277 556 23 84 27 118 27 252 1 119 -3 170 -17 219 -41 151 -134 278 -268 367
-138 91 -308 149 -729 249 -546 129 -780 226 -1001 416 -38 33 -69 59 -69 57
0 -2 11 -57 25 -123 20 -95 25 -150 25 -261 0 -222 -30 -366 -182 -889 -81
-275 -101 -377 -101 -520 -2 -276 93 -434 328 -553 183 -92 399 -143 704 -168
65 -5 80 -9 65 -16 -323 -171 -539 -397 -552 -577 l-4 -58 -65 -32 -66 -32 96
-44 c117 -52 168 -81 236 -135 40 -32 51 -47 51 -69 0 -33 33 -85 72 -114 37
-28 116 -34 161 -12 48 22 81 88 71 141 -12 66 -92 134 -157 134 -20 0 -29 10
-46 49 -11 27 -21 61 -21 76 0 67 62 142 160 194 66 35 250 99 298 103 32 3
34 0 56 -52 35 -84 130 -277 175 -356 l40 -72 -132 -82 c-360 -226 -755 -518
-1078 -797 l-96 -83 -7 -167 c-15 -363 34 -800 134 -1183 45 -171 108 -366
122 -377 7 -6 215 -60 461 -122 l448 -111 48 52 c26 29 65 72 85 96 l38 42 42
-72 c58 -102 91 -152 154 -238 50 -67 53 -75 37 -85 -44 -25 -75 -58 -85 -91
-19 -56 -8 -128 27 -176 l30 -41 -34 -90 c-18 -50 -35 -92 -37 -94 -2 -2 -55
20 -117 50 -63 30 -140 64 -171 76 -54 19 -58 19 -59 3 0 -9 -10 -111 -22
-227 l-23 -210 -48 -65 c-178 -238 -182 -474 -12 -657 114 -123 240 -183 386
-183 174 1 312 76 455 251 17 20 62 36 248 88 125 35 227 66 227 70 0 3 -30
42 -66 86 -35 44 -78 96 -94 116 l-29 36 119 58 119 57 41 -16 c83 -33 174
-12 215 50 l21 31 131 -58 c241 -107 501 -184 763 -228 639 -105 1355 -36
1900 184 246 100 412 187 620 326 573 381 1003 895 1230 1468 13 32 15 33 54
28 23 -4 55 -9 72 -13 28 -5 34 -1 85 61 44 55 55 63 61 48 4 -10 16 -126 28
-258 11 -132 23 -256 26 -275 l5 -35 192 12 192 13 278 82 c245 72 277 84 277
102 0 11 -16 122 -36 246 -20 124 -50 319 -68 433 l-33 209 122 98 122 98 21
104 c44 211 62 387 62 590 l0 109 -202 202 c-253 254 -464 432 -728 619 l-66
46 -59 -25 c-33 -13 -71 -22 -85 -20 -14 3 -106 41 -205 84 -99 44 -224 97
-278 118 -53 21 -94 42 -90 45 5 4 58 17 118 29 197 41 496 119 675 177 404
130 629 260 695 401 l27 55 84 -6 c46 -3 122 -9 169 -12 l85 -6 6 -37 c21
-116 129 -195 264 -194 261 3 302 326 51 400 -105 30 -228 -3 -280 -75 -19
-28 -22 -29 -78 -21 -32 5 -114 11 -183 15 l-126 7 -27 57 c-32 70 -127 161
-213 207 -208 111 -547 168 -953 161 l-203 -3 6 50 c19 160 27 289 22 356 l-6
76 128 51 c173 68 320 107 563 147 20 3 29 -3 44 -31 25 -47 97 -112 151 -135
100 -45 236 -42 340 5 64 30 137 95 172 155 24 41 27 56 27 137 0 83 -2 94
-30 139 -37 60 -96 106 -172 135 -48 18 -74 21 -153 18 -80 -3 -105 -8 -160
-34 -113 -53 -191 -154 -206 -262 -6 -50 -8 -52 -43 -58 -215 -35 -399 -84
-559 -149 -59 -23 -108 -41 -110 -40 -2 2 -10 29 -19 62 -8 32 -33 94 -56 138
-49 96 -152 203 -244 255 -34 19 -63 38 -63 41 0 4 64 59 143 122 l143 116 60
-30 c56 -29 64 -30 154 -27 112 5 170 29 243 102 63 64 91 125 95 213 7 129
-50 233 -160 287 -46 23 -64 26 -152 26 -84 -1 -109 -4 -147 -23z m256 -61
c45 -19 101 -81 121 -132 18 -49 15 -128 -7 -176 -15 -34 -34 -38 -24 -5 4 12
9 48 12 79 4 45 1 64 -12 84 l-17 27 -22 -46 c-31 -68 -97 -132 -151 -147 -72
-20 -186 -9 -234 23 l-40 26 -4 -22 c-2 -12 -4 5 -5 38 -3 190 203 326 383
251z m-7247 -337 c-2 -6 -8 -10 -13 -10 -5 0 -11 4 -13 10 -2 6 4 11 13 11 9
0 15 -5 13 -11z m45 -20 c12 -6 33 -23 47 -38 14 -14 36 -31 50 -38 27 -12 53
-32 101 -75 17 -15 39 -30 50 -33 10 -4 17 -11 13 -16 -3 -5 -2 -9 3 -8 21 4
33 -2 33 -16 0 -14 32 -37 59 -41 7 -2 19 -8 25 -15 8 -9 7 -10 -4 -5 -8 4 10
-15 40 -43 30 -27 58 -47 62 -45 5 3 6 10 2 15 -3 5 -10 6 -16 3 -7 -4 -8 -2
-4 4 5 8 22 0 52 -25 51 -43 85 -86 59 -77 -8 4 -15 11 -15 18 0 6 -9 17 -20
24 -35 21 -22 -2 29 -52 31 -31 51 -44 56 -36 8 13 35 -5 35 -24 0 -6 -7 -2
-15 8 -13 17 -15 18 -15 3 0 -18 3 -18 57 -20 28 -1 31 -3 19 -17 -18 -20 -64
-139 -79 -201 -13 -53 -16 -55 -82 -39 -199 47 -477 22 -610 -55 -57 -33 -162
-146 -188 -202 -17 -39 -22 -67 -22 -148 0 -95 2 -104 36 -176 58 -121 186
-246 333 -325 71 -39 69 -43 -6 -13 -113 44 -263 173 -332 283 -115 185 -99
363 62 706 17 36 36 92 41 125 5 33 19 114 31 180 13 73 21 155 20 210 -2 97
12 169 37 197 19 21 27 22 56 7z m3331 -101 c24 -34 19 -66 -14 -99 -24 -25
-37 -30 -67 -27 -31 2 -39 8 -47 30 -27 76 85 158 128 96z m-447 -137 c58 -26
101 -65 83 -76 -6 -4 -40 7 -75 25 -123 62 -247 34 -303 -70 -21 -39 -23 -55
-20 -125 7 -131 69 -229 180 -285 104 -51 207 -36 271 40 33 39 47 88 47 167
0 55 2 61 19 56 14 -4 21 -18 26 -59 21 -168 -86 -301 -240 -298 -134 3 -257
89 -326 229 -31 63 -34 77 -33 155 1 128 42 201 139 247 62 30 153 27 232 -6z
m-21 -83 l46 -21 -44 -23 c-76 -39 -240 -75 -251 -56 -11 16 38 85 73 103 47
26 119 24 176 -3z m3364 -38 c219 -23 413 -112 513 -233 50 -61 82 -117 67
-117 -9 0 -10 -21 -5 -80 6 -74 5 -82 -14 -98 -18 -15 -21 -32 -26 -134 -3
-65 -10 -128 -15 -140 -5 -13 -18 -72 -29 -133 -11 -60 -31 -135 -45 -165 -14
-30 -26 -62 -26 -70 0 -9 -8 -27 -17 -40 -10 -14 -17 -27 -17 -30 3 -12 -19
-61 -75 -170 -21 -41 -36 -79 -33 -84 3 -5 1 -6 -5 -3 -12 8 -25 -19 -48 -95
-12 -40 -27 -66 -51 -88 -47 -41 -84 -98 -77 -117 5 -13 2 -15 -11 -10 -9 4
-15 3 -11 -2 3 -5 1 -12 -4 -15 -5 -3 -47 26 -94 64 -208 170 -436 311 -684
422 -390 175 -775 261 -1265 284 l-143 7 125 119 c271 258 498 431 740 562 58
31 114 66 125 76 25 24 205 109 328 156 134 51 314 101 430 118 171 26 239 29
367 16z m-4948 -61 c234 -68 325 -323 226 -639 l-23 -72 -151 -43 c-336 -96
-622 -235 -893 -433 l-115 -84 -40 12 c-60 18 -198 83 -250 119 -69 48 -140
123 -177 188 -29 50 -34 69 -37 143 -4 78 -2 91 22 137 34 69 112 145 180 177
32 15 100 34 158 43 96 16 112 16 272 -1 94 -9 186 -20 204 -23 31 -5 32 -5
32 33 1 170 112 348 264 422 108 53 199 58 328 21z m6828 -4 c7 -8 19 -15 28
-15 22 0 92 -80 92 -105 0 -27 -108 -145 -133 -145 -10 0 -25 -7 -33 -15 -38
-38 -147 -30 -218 15 l-46 30 0 74 c0 66 3 78 26 105 14 18 36 37 48 43 51 28
216 37 236 13z m-5240 -55 c-58 -45 -131 -92 -136 -88 -2 3 -9 20 -14 37 -8
28 -7 31 5 21 18 -15 60 -6 110 25 48 29 70 32 35 5z m-182 -80 c22 -55 40
-78 102 -123 17 -12 11 -10 -17 4 -35 18 -45 20 -58 9 -12 -10 -18 -8 -35 11
-28 33 -56 88 -65 127 -6 30 -5 32 22 32 25 0 31 -6 51 -60z m-154 -134 l26
-45 -47 -54 c-27 -30 -57 -57 -67 -60 -17 -5 -16 -10 17 -51 58 -70 49 -96
-36 -96 -99 0 -115 -8 -148 -71 -48 -89 -70 -89 -114 -1 l-28 57 -10 -38 c-16
-67 -79 -87 -160 -51 -38 17 -39 19 -33 58 11 71 70 177 147 260 l71 79 -4
-78 c-4 -78 -4 -78 -47 -115 -24 -21 -41 -42 -37 -48 3 -6 25 -18 49 -27 36
-14 46 -24 69 -77 15 -33 33 -58 39 -56 6 2 26 32 43 65 l31 62 46 0 c71 1
139 13 139 24 0 5 -20 32 -45 58 -44 47 -45 50 -45 114 0 73 -2 75 -69 45 -55
-25 -57 -25 -115 9 l-48 29 67 47 c37 27 105 68 153 92 l86 44 22 -65 c12 -36
34 -86 48 -110z m496 121 c0 -67 -18 -113 -55 -146 -36 -32 -71 -45 -100 -39
-14 2 -11 14 19 74 38 76 112 168 127 158 5 -3 9 -24 9 -47z m-805 -198 c37
-22 46 -21 137 19 5 2 8 -24 8 -57 0 -56 3 -64 36 -101 l36 -40 -50 0 c-92 0
-110 -8 -140 -61 -15 -27 -30 -49 -33 -49 -3 0 -14 18 -24 41 -13 28 -31 47
-59 61 l-40 20 37 34 c35 32 37 38 37 94 0 33 4 60 9 60 6 0 26 -10 46 -21z
m-816 -535 l-51 -109 -40 84 c-21 46 -37 88 -35 94 4 13 171 57 175 46 2 -3
-20 -55 -49 -115z m-90 -121 c12 -29 11 -36 -10 -69 -73 -118 -184 -214 -297
-257 -50 -18 -78 -21 -217 -21 -140 0 -175 3 -280 28 -66 15 -124 31 -128 36
-11 9 74 75 219 170 157 103 447 241 614 292 14 4 53 -67 99 -179z m201 171
c0 -10 -58 -150 -84 -203 -91 -185 -192 -288 -341 -351 -100 -41 -159 -51
-295 -49 -140 2 -399 47 -425 73 -10 10 -31 17 -49 16 -56 -3 -72 -1 -58 9 11
7 9 13 -9 30 l-23 21 59 -20 c179 -62 435 -107 558 -97 260 21 422 153 582
475 36 72 55 100 68 99 9 -1 17 -2 17 -3z m740 -173 c0 -21 -17 -31 -37 -23
-28 10 -11 39 25 41 6 1 12 -8 12 -18z m2137 -147 c6 -16 -11 -34 -33 -34 -14
0 -26 28 -18 41 9 15 44 10 51 -7z m-260 -8 c-11 -29 19 -38 60 -18 21 10 46
17 57 14 25 -5 112 -73 108 -84 -1 -5 2 -7 7 -3 6 3 8 12 4 20 -9 24 34 18 51
-6 11 -16 20 -19 33 -14 17 8 17 8 1 12 -22 5 -35 50 -21 72 25 38 154 0 161
-47 3 -22 -5 -29 -45 -35 -45 -6 -35 -17 18 -18 101 -2 115 -5 147 -28 18 -12
32 -31 32 -43 0 -13 10 -24 30 -31 17 -6 29 -18 27 -26 -1 -7 4 -16 11 -18 6
-3 12 3 12 12 0 12 7 16 24 13 16 -2 34 6 51 22 22 21 37 25 92 26 74 2 110
-8 120 -32 8 -21 -38 -60 -80 -70 l-29 -6 27 -14 c15 -8 32 -14 37 -14 5 0 41
-28 79 -61 48 -44 69 -69 69 -85 0 -13 5 -24 10 -24 6 0 10 12 10 26 0 14 5
34 10 45 13 24 48 26 46 2 -1 -12 6 -18 21 -18 12 0 25 -4 29 -8 4 -4 29 -10
56 -13 43 -6 48 -9 48 -33 0 -36 14 -55 35 -47 14 5 16 14 11 47 -4 27 -3 38
4 34 5 -3 10 -15 10 -26 0 -10 8 -27 18 -37 9 -9 17 -24 16 -32 -2 -35 -5 -41
-14 -35 -5 3 -10 1 -10 -4 0 -6 5 -11 10 -11 14 0 12 -27 -2 -33 -7 -3 0 -4
16 -4 16 1 31 -4 33 -10 3 -9 -7 -13 -31 -13 -20 0 -36 4 -36 10 0 5 -13 7
-28 4 -18 -4 -34 -1 -43 9 -9 8 -27 12 -45 10 -17 -3 -124 7 -239 22 -273 34
-568 63 -727 72 l-128 6 -1 -234 c0 -129 -2 -243 -4 -253 -7 -39 -7 -282 0
-300 5 -10 3 -40 -4 -67 -12 -47 -4 -89 18 -89 5 0 12 -30 16 -67 4 -36 9 -74
12 -82 4 -14 4 -14 -6 -1 -9 13 -11 12 -12 -5 -1 -11 -1 -26 1 -34 1 -11 -9
-12 -52 -7 -29 4 -65 6 -80 6 -44 -1 -68 67 -28 77 11 3 20 9 20 14 0 17 -19
18 -55 3 -20 -8 -34 -10 -30 -5 3 6 2 11 -3 11 -5 0 -41 66 -80 148 -39 81
-110 228 -158 327 -47 99 -113 236 -145 304 l-60 123 39 52 c39 51 72 130 72
172 0 67 -53 128 -150 173 -83 39 -159 51 -172 28 -13 -23 -44 -21 -62 4 -13
20 -19 20 -86 13 l-71 -9 31 -34 c30 -32 31 -37 24 -85 -4 -28 -7 -61 -7 -73
1 -13 -2 -23 -6 -23 -3 0 -14 -26 -24 -57 -20 -61 -67 -132 -67 -101 0 9 -4
19 -9 22 -13 8 -42 -4 -35 -15 3 -5 -3 -9 -12 -9 -10 0 -26 -8 -36 -17 -14
-12 -38 -17 -86 -18 -37 -1 -76 -6 -87 -12 -17 -10 -21 -8 -32 15 -8 16 -11
19 -8 7 4 -15 -3 -25 -25 -38 -23 -14 -28 -15 -24 -4 4 11 -1 13 -20 10 -20
-4 -26 -1 -26 12 0 10 -6 15 -17 13 -10 -2 -18 -10 -18 -18 0 -8 -7 -18 -15
-22 -20 -9 -55 -10 -47 -1 4 3 0 14 -9 24 -9 10 -14 24 -11 32 4 10 -3 12 -23
9 -49 -7 -93 74 -52 97 13 7 14 13 5 22 -14 14 -46 -8 -103 -73 -74 -85 -99
-177 -69 -255 25 -68 119 -130 231 -154 l50 -11 -6 -42 c-15 -90 -25 -116 -49
-116 -37 0 -77 23 -83 48 -4 12 -19 29 -34 37 -17 9 -49 50 -85 112 -74 124
-83 136 -111 129 -13 -4 -26 -1 -29 4 -4 6 -11 7 -17 4 -7 -4 -8 -2 -4 5 4 6
13 8 19 5 9 -5 9 -4 1 5 -12 13 1 114 23 176 55 158 310 346 586 434 261 83
536 87 740 11 31 -12 57 -26 57 -31 0 -6 4 -8 9 -5 14 9 41 -4 41 -20 0 -8 7
-14 15 -14 8 0 15 -5 15 -12 0 -6 3 -9 6 -5 3 3 16 -5 28 -17 11 -13 27 -21
35 -18 8 3 11 0 7 -6 -3 -6 -2 -13 4 -17 6 -4 8 -10 5 -15 -3 -5 0 -12 6 -16
8 -4 9 -3 5 4 -5 8 -2 10 8 6 9 -3 16 -1 16 5 0 6 -6 11 -14 11 -20 0 -27 13
-15 30 8 13 11 12 20 -3 6 -9 14 -15 20 -12 5 4 9 1 9 -5 0 -6 5 -8 11 -4 8 4
7 9 -2 15 -7 4 -17 5 -21 3 -4 -3 -8 -1 -8 5 0 7 17 8 45 4 61 -8 58 10 -5 26
-30 8 -69 29 -97 52 -26 21 -67 47 -90 56 -24 10 -45 25 -48 33 -8 19 30 50
61 50 17 0 27 8 34 26 8 20 16 25 38 23 15 -1 35 2 45 6 11 4 23 3 30 -4 6 -6
20 -11 30 -11 13 0 17 -5 13 -15 -3 -8 -1 -15 3 -15 15 0 20 27 8 39 -6 6 -18
11 -26 11 -8 0 -11 3 -8 7 4 3 18 0 32 -7 14 -7 28 -11 31 -7 4 3 16 1 27 -4
14 -8 22 -8 27 1 4 7 23 16 41 20 49 12 52 11 46 -4z m3551 -61 c72 -22 132
-71 156 -127 17 -42 18 -52 7 -90 -16 -51 -68 -103 -131 -131 -33 -15 -67 -21
-130 -21 -74 -1 -93 3 -142 27 -63 31 -114 84 -124 130 -32 148 174 268 364
212z m-4028 -26 c0 -5 -7 -9 -15 -9 -15 0 -20 12 -9 23 8 8 24 -1 24 -14z
m1220 -69 c18 -11 4 -28 -28 -35 -30 -5 -49 20 -25 34 22 13 34 13 53 1z
m-4645 -10 c13 -5 14 -9 5 -9 -8 0 -24 4 -35 9 -13 5 -14 9 -5 9 8 0 24 -4 35
-9z m1791 -5 c8 -19 -3 -65 -15 -65 -5 0 -17 12 -26 27 -17 25 -17 27 1 40 23
17 33 17 40 -2z m4855 -10 c112 -16 177 -39 241 -83 84 -57 85 -125 5 -183
-70 -51 -154 -71 -318 -76 l-147 -5 -25 43 c-34 59 -41 105 -27 174 14 67 48
110 105 130 50 18 51 18 166 0z m-4922 -65 c29 -38 45 -68 39 -71 -6 -4 -7
-12 -3 -19 15 -24 -93 -107 -211 -162 -35 -16 -64 -32 -64 -34 0 -3 21 -37 48
-77 54 -83 89 -182 96 -281 3 -37 10 -74 15 -80 7 -9 -27 -31 -129 -81 -77
-38 -142 -66 -145 -63 -10 10 -82 307 -99 408 -18 110 -36 292 -36 367 l0 52
43 5 c23 3 69 8 102 11 65 7 185 44 243 75 21 10 40 18 45 17 4 -1 29 -31 56
-67z m6965 -16 c9 -3 14 -10 11 -15 -3 -4 3 -13 14 -18 16 -9 18 -16 11 -41
-6 -20 -5 -30 2 -30 6 0 3 -9 -8 -21 -14 -16 -26 -19 -54 -14 -59 10 -89 26
-99 54 -6 18 -10 20 -10 8 -1 -10 -5 -16 -10 -13 -13 8 -2 42 20 62 10 9 19
14 19 10 0 -4 7 0 16 8 16 16 59 21 88 10z m-5520 -118 c-9 -23 -32 -54 -52
-71 l-35 -30 6 37 c3 20 22 63 43 95 35 55 37 57 46 34 6 -17 3 -37 -8 -65z
m1894 22 c-5 -15 -48 -24 -48 -10 0 14 12 22 33 22 10 0 17 -5 15 -12z m-3185
-62 l29 -23 -54 -38 c-29 -21 -86 -65 -127 -99 l-74 -60 -29 34 c-15 19 -28
37 -28 41 0 3 30 24 67 45 36 22 87 58 112 81 53 49 65 51 104 19z m1259 -38
c-7 -7 -12 -8 -12 -2 0 14 12 26 19 19 2 -3 -1 -11 -7 -17z m2298 -68 c11 -11
23 -32 26 -46 13 -50 -64 -85 -110 -51 -17 12 -17 18 -6 53 7 21 17 45 23 52
14 18 44 15 67 -8z m-4848 -72 c113 -170 322 -402 494 -549 46 -40 81 -75 79
-79 -4 -6 -208 -125 -237 -138 -17 -8 -258 476 -258 518 0 30 -246 -37 -385
-105 -104 -50 -174 -107 -199 -163 l-18 -39 -76 -6 c-43 -4 -88 -10 -101 -13
-24 -7 -24 -6 -18 44 15 125 146 284 343 415 99 66 294 166 325 167 9 0 32
-24 51 -52z m3988 -34 c252 -25 577 -69 780 -105 149 -26 541 -105 605 -121
l50 -13 -2 -45 c-2 -25 -10 -157 -19 -295 l-16 -250 -103 -212 c-77 -159 -105
-210 -113 -200 -12 14 -5 31 106 275 35 78 62 145 59 148 -6 6 -659 120 -747
131 l-55 6 90 -95 c50 -53 231 -243 403 -422 l314 -326 -23 -339 -23 -339
-173 -218 c-96 -121 -188 -236 -206 -256 l-32 -37 -345 19 c-190 11 -484 26
-654 34 -169 8 -310 17 -312 19 -3 2 -9 145 -14 318 -6 173 -17 420 -25 549
-8 129 -15 241 -15 249 0 12 76 13 493 7 l492 -7 -56 53 c-30 29 -132 119
-225 200 -93 80 -265 230 -383 332 -118 102 -218 186 -223 186 -5 0 -7 -12 -4
-27 4 -16 17 -124 31 -242 l24 -214 32 -33 c42 -44 32 -52 -23 -20 l-43 25
-34 238 c-18 131 -40 276 -48 323 -11 69 -13 147 -7 414 l7 328 96 -7 c53 -3
206 -17 341 -31z m-881 -765 l344 -722 14 -221 c7 -121 12 -245 11 -275 l-3
-53 -60 -19 c-33 -11 -139 -40 -235 -65 -248 -63 -240 -60 -240 -94 0 -16 17
-84 39 -152 58 -183 60 -203 24 -180 -10 6 -62 162 -115 342 -13 46 -74 199
-250 630 -80 195 -153 378 -162 406 -14 43 -20 51 -36 47 -11 -3 -20 -12 -20
-20 0 -8 -4 -12 -10 -8 -10 6 12 -74 42 -149 l19 -50 -36 -145 c-34 -138 -83
-329 -156 -610 -38 -145 -45 -108 75 -375 42 -93 75 -170 73 -172 -1 -2 -12
-1 -23 2 -14 4 -33 30 -55 75 -51 107 -61 112 -189 94 -94 -12 -137 -9 -187
16 -38 19 -49 30 -51 52 -3 22 -8 27 -30 27 -27 0 -301 -66 -310 -74 -2 -3 36
-50 84 -106 215 -245 238 -275 221 -278 -10 -2 -14 -8 -10 -15 10 -19 -75 77
-224 250 -75 87 -140 160 -144 161 -15 6 -10 47 25 210 19 86 125 573 235
1082 110 509 204 938 209 954 l7 30 370 62 c204 34 379 62 390 63 17 1 73
-111 364 -720z m-1548 413 c30 -53 93 -161 138 -240 52 -89 81 -148 77 -158
-9 -23 -29 -4 -67 65 -18 31 -47 77 -64 102 -18 25 -53 80 -78 123 l-45 77 -7
-248 c-9 -299 -1 -874 15 -1108 l11 -170 -59 -265 c-34 -153 -56 -271 -51
-280 4 -8 70 -87 146 -176 76 -88 173 -201 215 -251 l77 -90 -216 -56 -216
-55 -46 38 c-161 137 -404 339 -447 373 l-51 40 -6 86 c-22 296 -64 731 -71
739 -7 6 -56 -22 -56 -32 0 -6 16 -193 35 -415 29 -343 37 -406 52 -423 10
-11 125 -111 256 -221 130 -110 237 -203 237 -206 0 -3 -94 -30 -208 -59
l-208 -54 -284 173 c-157 94 -298 180 -315 189 -29 16 -31 23 -67 196 -100
488 -158 1036 -158 1490 l0 210 192 116 c106 64 232 137 279 162 l87 47 7
-188 c4 -104 10 -242 14 -309 l6 -121 33 14 33 13 -6 98 c-11 171 -23 517 -18
525 11 20 391 195 623 288 80 32 147 58 150 58 3 0 30 -43 61 -97z m4109 32
c295 -106 921 -365 954 -395 8 -7 -89 -555 -100 -567 -3 -4 -257 93 -449 171
l-110 45 -3 -30 c-2 -17 0 -34 5 -38 4 -5 128 -56 276 -115 147 -59 267 -111
267 -115 0 -10 -71 -384 -73 -387 -3 -3 -447 116 -494 132 -9 3 -13 -7 -13
-33 l0 -37 108 -28 c300 -78 382 -102 382 -113 0 -38 -94 -502 -104 -514 -7
-8 -72 -118 -144 -245 -163 -285 -146 -259 -166 -248 -15 8 -12 16 22 69 21
32 70 118 108 189 39 72 84 153 102 182 27 46 29 53 14 57 -9 3 -210 42 -447
86 -236 45 -433 84 -437 87 -12 7 -10 88 12 453 26 440 54 812 85 1147 14 150
25 280 25 288 0 8 6 15 13 15 7 0 82 -25 167 -56z m-6290 -274 c0 -23 -26 -26
-53 -6 -20 15 -10 24 31 25 16 1 22 -5 22 -19z m7443 -128 c224 -161 459 -365
681 -592 l149 -152 -6 -176 c-9 -248 -55 -544 -89 -565 -15 -10 -33 -2 -234
109 l-61 34 25 -148 c87 -535 168 -1068 163 -1074 -8 -9 -482 -151 -487 -146
-7 7 -24 554 -24 778 0 124 -7 369 -15 545 -8 176 -15 345 -16 375 -1 34 -4
43 -6 24 -3 -21 -12 -35 -29 -42 -29 -14 -29 -10 -13 -400 l11 -274 -34 -36
c-19 -21 -81 -92 -137 -159 -57 -68 -107 -123 -111 -123 -39 0 16 74 175 236
l60 62 -198 37 c-118 23 -201 35 -207 29 -8 -9 -75 -121 -141 -236 -94 -165
-144 -247 -147 -238 -2 6 -8 7 -14 4 -13 -8 -10 -3 142 262 70 122 130 237
134 255 4 19 41 212 82 429 42 217 102 535 135 705 32 171 69 363 81 428 18
96 25 117 37 112 8 -3 51 -32 94 -63z m-7252 -105 c-13 -13 -26 -3 -16 12 3 6
11 8 17 5 6 -4 6 -10 -1 -17z m479 -796 c6 -86 20 -234 30 -330 11 -96 19
-175 17 -176 -96 -57 -317 -192 -330 -201 -16 -10 8 -26 191 -123 144 -77 211
-118 215 -131 3 -11 3 -20 -1 -20 -3 0 -107 54 -232 120 -125 66 -232 120
-238 120 -6 0 -41 21 -79 47 -37 25 -107 73 -155 105 -49 33 -88 61 -88 63 0
3 65 47 145 99 142 93 145 96 145 131 0 43 19 53 -219 -105 -101 -67 -180
-125 -175 -129 27 -23 381 -268 394 -273 5 -2 25 -102 45 -222 l37 -219 59
-113 c33 -62 67 -115 77 -119 9 -4 87 -31 172 -61 169 -58 260 -93 247 -94 -7
0 -378 102 -506 140 -19 5 -39 7 -45 3 -6 -3 -101 -67 -210 -141 -159 -108
-195 -137 -180 -142 10 -4 171 -47 357 -94 326 -84 405 -97 399 -67 -4 17 27
53 39 45 5 -3 9 3 9 13 1 26 186 221 198 208 7 -7 -37 -63 -130 -166 l-141
-156 -416 104 c-229 57 -419 107 -422 111 -22 24 -136 454 -168 632 -50 280
-76 619 -65 858 l7 142 116 98 c252 212 469 379 732 560 l144 100 7 -230 c3
-127 11 -301 18 -387z m2998 -1006 c131 -31 237 -107 290 -210 22 -41 27 -64
27 -127 0 -104 -8 -110 -82 -61 -32 22 -92 59 -135 82 l-76 42 -7 -31 c-4 -17
-5 -33 -3 -35 1 -1 46 -29 98 -60 116 -70 226 -148 390 -275 197 -153 286
-234 282 -256 -2 -10 -5 -20 -7 -22 -2 -2 -49 19 -106 47 -129 61 -312 122
-466 155 -65 14 -119 23 -121 21 -2 -1 11 -32 28 -68 43 -87 136 -209 261
-341 57 -61 99 -107 92 -103 -6 4 -14 3 -18 -3 -3 -5 -1 -10 4 -10 6 0 10 -3
10 -7 -4 -27 1 -35 16 -23 8 7 12 17 8 24 -4 6 8 -2 26 -17 25 -20 41 -27 60
-23 14 3 44 8 66 11 166 24 246 43 321 76 24 11 44 24 44 28 0 11 -129 144
-158 163 l-23 16 24 48 c24 49 137 252 196 353 18 29 31 54 29 56 -2 1 -29 7
-60 14 -88 19 -123 78 -79 132 16 20 28 24 75 24 74 0 97 -22 99 -94 2 -53 7
-57 61 -53 12 2 16 -3 13 -12 -8 -21 19 -39 48 -32 14 4 25 2 25 -3 0 -5 9 -7
20 -4 14 4 20 0 20 -12 0 -17 1 -17 20 0 17 15 26 17 55 8 19 -6 35 -8 35 -3
0 14 33 21 41 9 13 -22 28 25 23 76 -6 64 -11 78 -26 73 -11 -4 -32 36 -41 77
-1 6 -6 13 -12 18 -10 7 20 37 38 37 5 0 22 -14 37 -30 18 -19 31 -26 35 -20
11 17 36 -10 33 -34 -2 -13 2 -20 10 -18 7 1 12 -8 12 -21 0 -31 18 -47 54
-47 17 0 55 -14 85 -30 52 -29 54 -29 90 -14 54 24 98 33 109 22 6 -6 25 -5
50 2 46 12 88 5 96 -16 4 -9 -6 -15 -32 -19 -67 -11 -139 -52 -173 -97 -29
-41 -31 -47 -27 -119 2 -64 7 -81 31 -112 31 -40 33 -47 14 -47 -18 0 -53 39
-65 70 -5 14 -17 25 -28 25 -13 0 -20 8 -22 28 -2 15 -9 27 -18 27 -8 0 -14 7
-14 15 0 8 6 15 13 15 9 0 9 2 0 8 -6 4 -13 23 -16 42 -3 29 -4 28 -3 -7 l1
-43 -22 23 c-23 23 -35 68 -18 64 6 -1 9 -6 7 -12 -2 -5 2 -5 8 1 17 16 29 80
19 95 -7 12 -9 11 -10 -1 -1 -8 -2 -19 -4 -25 -1 -5 -3 -18 -3 -28 -1 -10 -6
-16 -10 -13 -12 7 -59 -43 -72 -78 -8 -21 -15 -27 -30 -23 -16 4 -20 0 -20
-19 0 -13 4 -24 8 -24 10 0 46 47 55 73 12 31 26 18 25 -25 0 -50 -13 -78 -34
-78 -11 0 -4 -13 20 -42 20 -23 34 -47 32 -54 -2 -6 2 -30 10 -53 8 -24 11
-58 8 -83 -4 -31 0 -56 14 -89 l20 -47 -23 -22 c-14 -13 -22 -27 -19 -32 3 -4
8 -6 12 -4 4 2 12 -2 19 -9 9 -10 2 -14 -34 -18 -45 -5 -127 -52 -126 -72 1
-5 -3 -18 -9 -28 -6 -12 -6 -23 2 -32 6 -8 9 -22 6 -32 -3 -10 -1 -25 5 -33 9
-12 10 -11 4 5 -5 17 -3 17 19 -5 27 -26 30 -43 20 -123 -4 -30 -2 -53 5 -60
6 -6 11 -20 11 -31 -1 -16 -4 -13 -15 12 -8 17 -18 32 -24 32 -5 0 -10 8 -10
18 -1 94 -7 127 -25 130 -12 3 -16 0 -11 -8 4 -6 7 -40 7 -76 0 -35 5 -64 9
-64 5 0 17 -16 26 -35 9 -19 21 -35 26 -35 5 0 -2 -9 -16 -21 -20 -15 -26 -27
-23 -47 5 -36 22 -79 46 -112 11 -16 20 -40 20 -54 0 -18 13 -38 40 -62 22
-20 40 -40 40 -44 0 -13 -184 -103 -310 -153 -130 -52 -283 -100 -275 -87 13
21 -168 42 -378 44 -106 1 -140 4 -146 15 -5 8 -37 18 -73 23 -64 8 -175 57
-205 90 -9 10 -22 18 -29 18 -7 0 -25 15 -39 34 -15 20 -32 33 -40 30 -7 -3
-16 -1 -20 5 -10 17 -28 13 -21 -4 4 -11 -2 -15 -22 -15 -36 0 -102 19 -102
29 0 4 -11 20 -25 35 -14 15 -25 36 -25 48 0 20 -1 21 -20 3 -17 -15 -20 -16
-20 -3 0 18 45 65 70 73 15 5 16 11 8 48 -16 68 -11 173 9 197 22 25 48 27 38
3 -14 -34 -14 -159 0 -199 10 -29 10 -41 2 -46 -7 -5 -3 -8 10 -8 22 0 22 1 6
38 -17 39 -23 157 -10 205 5 20 14 27 32 27 22 0 25 4 22 35 l-2 35 -61 0
c-57 0 -65 3 -111 40 l-49 40 33 68 c18 37 32 70 30 73 -1 4 -108 95 -237 202
-157 131 -237 192 -242 184 -4 -7 -8 -30 -9 -52 -1 -88 -9 -86 -97 24 -215
267 -349 531 -397 784 -8 43 -15 81 -15 83 0 9 93 3 212 -12 223 -29 463 -100
677 -200 51 -24 97 -41 102 -38 5 3 9 14 9 24 0 10 5 20 11 22 16 5 -187 99
-300 139 -104 36 -105 40 -11 81 108 47 228 59 338 33z m2954 -255 c-14 -25
-21 -30 -42 -25 -14 3 -33 6 -42 6 -28 0 -21 7 19 18 28 8 39 7 46 -2 6 -8 7
-7 4 5 -6 18 0 28 19 28 10 0 9 -8 -4 -30z m-1874 -33 c-7 -48 -69 -48 -67 0
0 25 1 26 9 8 8 -20 9 -20 9 1 1 17 6 20 27 16 18 -3 24 -10 22 -25z m-200
-48 c-17 -11 -18 -8 -11 37 l7 39 8 -34 c7 -25 6 -36 -4 -42z m383 34 c8 -9
29 -22 46 -30 47 -19 113 -106 113 -148 0 -62 -58 -93 -142 -75 -76 16 -107
45 -124 116 -7 33 -14 71 -14 86 0 53 89 91 121 51z m-477 -7 c-16 -13 -17
-18 -6 -35 7 -12 8 -21 3 -21 -5 0 -13 9 -16 20 -7 22 9 50 28 50 6 0 2 -6 -9
-14z m26 -22 c0 -9 -5 -14 -12 -12 -18 6 -21 28 -4 28 9 0 16 -7 16 -16z m0
-59 c0 -9 -6 -12 -16 -8 -13 5 -13 7 -2 14 17 11 18 11 18 -6z m35 -14 c-3 -6
-11 -11 -16 -11 -5 0 -4 6 3 14 14 16 24 13 13 -3z m-139 -16 c-8 -8 -20 -15
-27 -15 -7 0 -4 6 7 15 25 19 40 19 20 0z m54 -24 c5 -11 10 -22 10 -25 0 -8
-60 -8 -100 0 -37 8 -22 24 22 24 15 0 30 5 33 10 10 16 23 12 35 -9z m-1672
-190 c34 -60 94 -153 133 -207 71 -97 89 -145 67 -171 -6 -8 -10 -40 -9 -72 4
-110 -51 -189 -149 -210 -28 -6 -60 -11 -70 -11 -43 0 -16 -19 69 -49 49 -18
94 -37 99 -44 6 -7 12 -32 15 -57 3 -25 10 -66 16 -92 13 -57 5 -101 -22 -125
-20 -17 -20 -17 -13 2 29 75 29 76 7 98 -16 17 -23 19 -33 9 -15 -15 -59 -16
-91 -1 -21 9 -28 8 -46 -10 -25 -25 -39 -26 -66 -7 -11 7 -35 12 -52 11 -18
-1 -33 3 -33 8 0 6 -3 7 -6 4 -11 -10 -41 11 -47 33 -6 25 -3 25 21 0 17 -18
20 -18 38 -5 19 15 19 15 -5 35 -18 16 -27 18 -37 9 -29 -24 -14 17 16 46 27
26 29 30 13 36 -26 9 -42 -8 -49 -52 -5 -32 -9 -37 -20 -28 -29 24 -8 85 50
142 14 14 26 30 26 35 0 5 15 13 33 16 l32 7 -40 21 c-45 23 -85 57 -85 71 0
6 -7 18 -16 28 -10 11 -16 37 -16 73 0 31 -4 58 -8 61 -3 2 -27 -13 -53 -34
-50 -42 -133 -63 -148 -39 -6 10 -15 10 -40 1 -18 -7 -35 -10 -40 -8 -4 3 -5
-4 -2 -15 5 -19 6 -20 19 -3 14 19 18 14 8 -11 -3 -9 -16 -16 -29 -16 -19 0
-22 4 -18 21 5 19 4 20 -16 10 -17 -10 -21 -9 -21 4 0 9 -12 18 -29 21 -25 5
-111 81 -111 98 0 10 64 65 76 66 14 0 24 23 24 51 0 10 5 19 11 19 5 0 8 4 5
9 -3 5 8 14 24 21 31 13 40 42 18 56 -7 5 -8 3 -3 -6 5 -8 4 -11 -2 -7 -5 3
-11 29 -12 56 l-1 50 69 21 c83 26 105 24 109 -10 2 -14 7 -29 12 -33 9 -10
51 0 48 11 -1 4 1 21 4 39 7 30 16 36 65 48 39 10 213 71 219 78 18 18 34 0
92 -102z m1647 70 c126 -15 215 -32 215 -42 0 -5 -34 -69 -74 -141 -49 -86
-77 -127 -81 -117 -3 9 17 55 50 110 30 52 55 99 55 105 0 19 -116 34 -256 35
-115 0 -131 2 -158 22 l-31 22 55 6 c90 9 140 9 225 0z m-2316 -166 c24 -24
25 -97 2 -143 -20 -39 -68 -72 -106 -72 -48 0 -78 85 -55 154 22 67 116 103
159 61z m2104 -191 c50 -19 130 -55 177 -80 88 -46 250 -159 250 -174 0 -23
-200 -60 -331 -60 -47 0 -88 3 -92 6 -8 8 27 41 52 49 12 3 21 10 21 13 0 4
23 25 50 47 28 22 50 48 50 57 0 32 -215 126 -385 168 -103 26 -121 33 -135
59 -9 18 2 16 121 -15 73 -19 173 -51 222 -70z m-2330 18 c10 -17 21 -56 24
-85 6 -57 0 -69 -55 -107 -19 -12 -20 -16 -6 -23 9 -5 21 -4 32 4 11 8 10 5
-3 -9 -14 -15 -27 -20 -42 -16 -13 4 -20 10 -17 15 3 5 -1 6 -9 3 -18 -6 -67
40 -67 63 0 9 -7 25 -16 34 -12 13 -17 40 -18 96 l-1 78 43 3 c23 2 42 7 42
13 0 17 75 -38 93 -69z m4179 3 c2 -12 -74 -65 -84 -59 -11 7 55 73 70 71 7
-1 14 -6 14 -12z m-4435 -97 c-3 -7 -5 -2 -5 12 0 14 2 19 5 13 2 -7 2 -19 0
-25z m1640 -90 c13 -109 30 -164 85 -273 59 -119 58 -118 110 -38 25 37 55 88
68 112 16 33 24 41 33 32 9 -9 3 -29 -27 -85 -37 -71 -121 -186 -134 -186 -12
0 -89 142 -120 220 -33 84 -48 149 -58 258 -6 71 -5 73 13 64 15 -9 21 -29 30
-104z m-796 -68 c38 -81 28 -120 -31 -120 -59 0 -79 64 -40 128 26 42 49 39
71 -8z m-143 14 c25 -17 29 -49 8 -57 -36 -14 -86 44 -54 64 18 12 20 11 46
-7z m3367 -95 c-29 -11 -66 -37 -88 -61 -38 -42 -38 -42 -31 -13 13 57 66 95
129 94 l40 0 -50 -20z m-2695 -40 c0 -4 -9 -9 -20 -12 -23 -6 -24 -3 -9 25 9
17 13 18 20 7 5 -8 9 -17 9 -20z m-754 -34 c64 -32 96 -54 113 -80 13 -19 21
-38 18 -41 -3 -3 -11 3 -18 15 -12 19 -81 57 -174 97 -39 17 -53 20 -95 23
-27 1 -25 19 3 24 50 10 69 5 153 -38z m302 33 c7 -7 8 -17 1 -30 -14 -26 -39
-23 -39 5 0 36 16 47 38 25z m-498 -23 c-7 -9 -15 -13 -19 -10 -3 3 1 10 9 15
21 14 24 12 10 -5z m-839 -55 c24 -14 25 -56 0 -69 -35 -19 -70 30 -43 62 18
20 18 20 43 7z m625 -68 c6 -4 14 -17 18 -29 8 -25 -23 -63 -51 -63 -21 0 -53
29 -53 47 0 33 58 64 86 45z m3534 -87 c0 -9 -6 -12 -15 -9 -8 4 -12 10 -9 15
8 14 24 10 24 -6z m-3823 -325 c-45 -58 -94 -121 -109 -140 l-27 -34 -43 32
c-32 24 -210 151 -236 167 -1 1 13 44 31 96 l34 94 59 5 c66 6 108 29 130 72
l15 29 114 -107 113 -108 -81 -106z m3789 274 c-4 -20 -2 -41 6 -53 10 -17 10
-23 -1 -33 -10 -11 -18 -7 -42 22 -16 19 -29 37 -29 41 0 12 55 66 63 61 5 -2
6 -19 3 -38z m-2895 15 c21 -7 36 -16 33 -20 -2 -5 17 -20 45 -33 94 -48 190
-126 183 -148 -1 -4 7 -12 17 -18 11 -5 29 -30 42 -54 32 -66 21 -124 -35
-180 -42 -43 -86 -58 -165 -55 -26 1 -26 1 4 11 133 48 178 128 129 227 -57
114 -216 200 -372 201 -56 0 -95 -15 -126 -49 -11 -12 -25 -21 -32 -21 -7 0
-18 -8 -23 -17 -9 -15 -10 -13 -11 14 0 69 86 129 205 143 33 4 62 8 64 9 2 0
21 -4 42 -10z m303 -137 c-6 -9 -44 20 -44 33 0 10 7 8 23 -8 13 -12 22 -23
21 -25z m79 16 c3 -8 -5 -14 -19 -14 -25 -2 -33 11 -11 19 20 9 25 8 30 -5z
m531 -9 c-3 -5 -11 -9 -18 -9 -7 0 -35 -12 -62 -26 l-49 -26 24 25 c12 14 37
32 54 40 30 15 62 13 51 -4z m43 5 c-3 -3 -12 -4 -19 -1 -8 3 -5 6 6 6 11 1
17 -2 13 -5z m-2182 -284 c156 -116 255 -202 375 -327 108 -111 210 -228 210
-242 0 -4 -82 -30 -182 -59 -159 -45 -184 -50 -197 -37 -13 12 -13 15 0 19 35
11 246 85 262 91 28 12 20 34 -37 104 -110 134 -135 158 -146 140 -5 -9 -42
-38 -82 -65 -40 -27 -97 -66 -126 -87 -42 -30 -57 -36 -65 -27 -9 9 3 25 52
68 35 32 91 83 125 115 l61 58 -39 34 c-22 19 -44 35 -50 35 -20 0 -56 -31
-56 -48 0 -9 -16 -35 -36 -57 -19 -22 -32 -34 -28 -26 5 9 3 12 -4 7 -7 -4
-12 -13 -12 -20 0 -18 -57 -69 -69 -62 -6 4 -9 1 -6 -7 3 -7 -2 -20 -12 -29
-17 -15 -20 -15 -48 7 l-29 24 37 38 c24 24 35 30 31 18 -7 -18 -6 -19 9 -6
10 8 17 21 15 30 -1 9 4 27 11 41 7 14 -16 -6 -52 -45 l-64 -70 -122 99 c-68
54 -118 102 -113 105 5 3 20 54 31 113 12 58 30 135 41 171 10 36 15 69 12 72
-4 4 38 -15 93 -43 55 -27 149 -87 210 -132z m575 100 c48 -36 110 -81 139
-99 28 -18 51 -35 51 -37 0 -3 -10 -19 -22 -35 -17 -22 -23 -44 -22 -78 l0
-48 -122 -61 -122 -61 -112 109 -113 108 108 141 c61 80 112 138 118 134 6 -3
50 -36 97 -73z m1203 -80 c-3 -11 -13 -20 -22 -21 -9 0 -23 -2 -32 -4 -10 -1
-16 2 -15 9 4 24 18 36 46 36 23 0 27 -3 23 -20z m80 13 c-7 -2 -19 -2 -25 0
-7 3 -2 5 12 5 14 0 19 -2 13 -5z m452 -52 c-13 -11 -81 -34 -71 -24 4 5 22
13 39 20 40 15 43 15 32 4z m400 -95 c22 -20 34 -36 28 -36 -7 0 -13 4 -13 9
0 4 -18 21 -40 36 -22 15 -40 32 -40 37 0 10 8 4 65 -46z m-1826 21 c8 -10 7
-18 -3 -32 -17 -24 -66 -13 -66 14 0 30 48 42 69 18z m1947 -115 c11 -7 0 -3
-23 9 -23 12 -45 29 -48 37 -3 8 7 4 24 -10 15 -12 37 -29 47 -36z m-3284 -2
c-1 -6 1 -9 5 -7 5 3 24 -8 43 -23 l35 -29 -18 -28 c-43 -67 -60 -119 -65
-200 -4 -70 -1 -88 18 -127 72 -149 274 -188 414 -81 37 28 46 32 46 17 1 -9
11 -30 25 -46 l24 -29 35 27 c20 15 36 34 36 42 0 12 4 12 20 4 30 -16 25 -33
-32 -96 -108 -118 -230 -171 -377 -162 -110 6 -191 47 -287 142 -88 89 -117
147 -122 244 -6 116 31 222 120 340 38 51 41 53 61 38 12 -8 21 -20 19 -26z
m3326 -35 c-3 -3 -9 2 -12 12 -6 14 -5 15 5 6 7 -7 10 -15 7 -18z m52 -10 c14
-8 21 -14 15 -14 -5 0 -21 6 -35 14 -14 8 -20 14 -15 14 6 0 21 -6 35 -14z
m-3145 -176 c10 -14 1 -21 -19 -13 -9 3 -13 10 -10 15 7 12 21 11 29 -2z"/>
<path d="M6598 8234 c-130 -31 -271 -127 -347 -234 -68 -98 -86 -153 -86 -270
0 -86 3 -101 31 -161 37 -77 116 -161 190 -201 103 -56 272 -74 403 -43 154
37 325 164 388 290 64 126 71 281 18 388 -34 68 -120 154 -193 191 -106 54
-278 71 -404 40z m242 -24 c95 -15 198 -69 258 -135 64 -69 92 -142 92 -233 0
-132 -40 -225 -139 -322 -145 -143 -346 -200 -540 -155 -87 21 -154 59 -211
122 -69 76 -93 131 -98 228 -9 181 96 344 282 436 126 62 228 79 356 59z"/>
<path d="M6604 7905 c-4 -10 -20 -15 -48 -15 -39 0 -40 -1 -16 -13 51 -25 29
-75 -36 -84 -52 -7 -84 10 -84 42 0 14 4 25 9 25 5 0 7 9 4 20 -5 18 -7 18
-32 5 -50 -25 -99 -90 -106 -138 -8 -53 8 -90 59 -135 112 -98 350 -52 417 80
40 79 8 168 -76 208 -49 24 -83 26 -91 5z"/>
<path d="M7547 8173 c-3 -5 6 -28 19 -53 l24 -45 -4 35 c-7 58 -25 87 -39 63z"/>
<path d="M1925 8106 c-41 -18 -83 -69 -91 -111 -13 -72 39 -145 106 -145 41 0
93 34 117 76 39 68 27 140 -29 174 -38 23 -61 24 -103 6z m0 -77 c12 -19 -4
-59 -24 -59 -24 0 -31 18 -18 48 11 23 31 29 42 11z m88 -76 c-3 -7 -9 -13
-13 -13 -16 0 -22 21 -9 36 14 17 31 0 22 -23z"/>
<path d="M1023 7670 c-40 -24 -53 -48 -53 -97 0 -77 51 -113 160 -113 66 0 74
2 101 29 17 18 29 40 29 56 0 40 -37 104 -73 125 -43 26 -121 26 -164 0z m35
-78 c3 -17 -2 -22 -18 -22 -25 0 -38 29 -19 41 20 13 34 6 37 -19z m112 -31
c0 -12 -20 -25 -27 -18 -7 7 6 27 18 27 5 0 9 -4 9 -9z"/>
<path d="M5236 7105 c-14 -14 -28 -21 -31 -15 -3 6 -11 10 -18 10 -17 0 7 -21
28 -24 10 -1 27 6 37 16 10 10 22 17 27 14 4 -3 8 1 8 9 0 23 -23 18 -51 -10z"/>
<path d="M3947 6903 c3 -54 9 -106 12 -115 9 -25 29 -8 36 31 8 47 17 59 26
35 6 -15 8 -12 8 13 1 20 -8 42 -24 61 -14 17 -25 39 -25 51 0 14 -6 21 -19
21 -18 0 -19 -6 -14 -97z"/>
<path d="M5292 6914 c-28 -19 -28 -53 -1 -88 30 -38 165 -103 262 -126 92 -22
232 -26 287 -7 58 20 48 77 -16 93 -19 5 -29 1 -41 -16 -10 -14 -22 -20 -34
-17 -11 3 -17 1 -13 -4 3 -5 1 -9 -5 -9 -19 0 -24 23 -7 32 9 5 16 16 16 23 0
11 -6 9 -21 -6 -16 -16 -29 -20 -52 -15 -18 3 -58 9 -89 12 -32 4 -55 11 -52
15 3 5 -2 9 -11 9 -24 0 -52 66 -38 89 10 16 8 20 -10 25 -45 12 -152 6 -175
-10z"/>
<path d="M5680 6920 c8 -5 24 -9 35 -9 l20 0 -20 9 c-11 5 -27 9 -35 9 -13 1
-13 0 0 -9z"/>
<path d="M4675 6869 c-12 -19 3 -22 27 -5 l22 16 -21 0 c-12 0 -25 -5 -28 -11z"/>
<path d="M4685 6829 c-4 -6 -5 -12 -2 -15 2 -3 7 2 10 11 7 17 1 20 -8 4z"/>
<path d="M3630 6590 c0 -5 5 -10 11 -10 5 0 7 5 4 10 -3 6 -8 10 -11 10 -2 0
-4 -4 -4 -10z"/>
<path d="M8253 7070 c-57 -34 -53 -108 6 -143 57 -33 165 -15 191 32 14 27 13
64 -4 87 -14 19 -15 19 -38 -3 -41 -38 -88 -25 -88 24 0 29 -23 30 -67 3z"/>
<path d="M7884 6889 c-3 -6 -36 -30 -73 -53 -57 -37 -138 -68 -206 -79 -11 -2
-19 -9 -17 -16 2 -8 -3 -11 -12 -8 -9 4 -18 2 -21 -3 -9 -15 41 -12 160 10 80
15 119 27 148 47 42 29 66 68 60 96 -5 19 -28 23 -39 6z"/>
<path d="M5230 4231 c0 -109 2 -124 26 -168 14 -26 34 -51 45 -55 10 -4 19
-14 19 -21 0 -17 76 -26 285 -33 77 -2 199 -9 270 -14 173 -14 509 -33 565
-33 51 0 65 13 209 201 153 199 171 224 171 233 0 5 -337 9 -795 9 l-795 0 0
-119z"/>
<path d="M4514 5673 c-3 -10 -10 -27 -16 -37 -9 -17 -7 -18 23 -12 42 8 42 8
28 40 -14 30 -27 33 -35 9z"/>
<path d="M2678 3992 c-43 -14 -78 -29 -78 -33 0 -4 42 -41 93 -82 50 -41 133
-112 183 -158 122 -112 204 -171 229 -165 35 9 249 74 278 85 l29 11 -64 73
c-34 39 -96 106 -136 147 l-73 75 -12 -25 c-16 -32 -86 -53 -147 -45 -25 4
-67 8 -94 11 -57 4 -121 42 -139 81 -9 21 -8 27 8 39 26 19 13 17 -77 -14z"/>
<path d="M2355 3845 c-33 -12 -107 -41 -165 -64 -58 -23 -113 -45 -123 -49
-14 -5 22 -32 150 -111 92 -57 201 -126 241 -153 41 -26 84 -48 97 -48 28 0
227 45 279 63 22 7 41 18 43 24 9 25 -404 364 -440 362 -12 0 -49 -11 -82 -24z"/>
<path d="M8450 5200 c0 -49 3 -90 7 -90 3 0 20 11 38 24 l32 25 201 -135 202
-134 0 40 0 40 -240 160 -240 160 0 -90z"/>
<path d="M1810 3114 c0 -8 5 -12 10 -9 6 3 10 10 10 16 0 5 -4 9 -10 9 -5 0
-10 -7 -10 -16z"/>
<path d="M5772 3419 c2 -7 16 -16 31 -20 30 -8 38 5 10 15 -10 3 -24 9 -32 12
-8 4 -12 2 -9 -7z"/>
<path d="M3208 3153 c7 -3 16 -2 19 1 4 3 -2 6 -13 5 -11 0 -14 -3 -6 -6z"/>
<path d="M3940 2979 c0 -5 5 -7 10 -4 6 3 10 8 10 11 0 2 -4 4 -10 4 -5 0 -10
-5 -10 -11z"/>
<path d="M3667 2561 c-3 -14 -1 -18 9 -14 8 3 28 0 45 -6 37 -13 42 -11 33 13
-4 9 -12 15 -19 12 -7 -2 -16 -2 -19 2 -15 15 -44 10 -49 -7z"/>
<path d="M2189 1793 c-13 -16 -12 -17 4 -4 9 7 17 15 17 17 0 8 -8 3 -21 -13z"/>
</g>
</svg>
